<svg id="SvgjsSvg1006" xmlns="http://www.w3.org/2000/svg" width="45" height="380" viewBox="0 0 45 380">
  <title>FibonacciClockDivider</title>
  <path id="SvgjsRect1008" d="M0,0H45V380H0Z" transform="translate(0 0)" style="fill: #222"/>
  <path id="SvgjsRect1009" d="M7.5,33h30V65H7.5Z" transform="translate(0 0)" style="fill: #91b06f"/>
  <path id="SvgjsRect1010" d="M0,70H35v30H0Z" transform="translate(0 0)" style="fill: #797979"/>
  <path id="SvgjsPolygon1011" d="M35,70,45,85,35,100Z" transform="translate(0 0)" style="fill: #797979"/>
  <path id="SvgjsRect1012" d="M0,105H35v30H0Z" transform="translate(0 0)" style="fill: #797979"/>
  <path id="SvgjsPolygon1013" d="M35,105l10,15L35,135Z" transform="translate(0 0)" style="fill: #797979"/>
  <path id="SvgjsRect1014" d="M0,140H35v30H0Z" transform="translate(0 0)" style="fill: #797979"/>
  <path id="SvgjsPolygon1015" d="M35,140l10,15L35,170Z" transform="translate(0 0)" style="fill: #797979"/>
  <path id="SvgjsRect1016" d="M0,175H35v30H0Z" transform="translate(0 0)" style="fill: #797979"/>
  <path id="SvgjsPolygon1017" d="M35,175l10,15L35,205Z" transform="translate(0 0)" style="fill: #797979"/>
  <path id="SvgjsRect1018" d="M0,210H35v30H0Z" transform="translate(0 0)" style="fill: #797979"/>
  <path id="SvgjsPolygon1019" d="M35,210l10,15L35,240Z" transform="translate(0 0)" style="fill: #797979"/>
  <path id="SvgjsRect1020" d="M0,245H35v30H0Z" transform="translate(0 0)" style="fill: #797979"/>
  <path id="SvgjsPolygon1021" d="M35,245l10,15L35,275Z" transform="translate(0 0)" style="fill: #797979"/>
  <path id="SvgjsRect1022" d="M0,280H35v30H0Z" transform="translate(0 0)" style="fill: #797979"/>
  <path id="SvgjsPolygon1023" d="M35,280l10,15L35,310Z" transform="translate(0 0)" style="fill: #797979"/>
  <path id="SvgjsRect1024" d="M0,315H35v30H0Z" transform="translate(0 0)" style="fill: #797979"/>
  <path id="SvgjsPolygon1025" d="M35,315l10,15L35,345Z" transform="translate(0 0)" style="fill: #797979"/>
  <g id="text4650">
    <path id="path5271" d="M21.05,360.8a4.66,4.66,0,0,1-.21,1.45,4.36,4.36,0,0,1-.53,1.13,3.63,3.63,0,0,1-.78.83,4.51,4.51,0,0,1-.93.56,3.88,3.88,0,0,1-1,.32,4.35,4.35,0,0,1-.92.11H6.25v-2.71H16.7a1.53,1.53,0,0,0,1.2-.46,1.66,1.66,0,0,0,.44-1.23,2.06,2.06,0,0,0-.11-.68,1.64,1.64,0,0,0-.34-.55,1.29,1.29,0,0,0-.52-.35,1.78,1.78,0,0,0-.67-.13H10.47a5,5,0,0,1-1.42-.22,4.38,4.38,0,0,1-1.42-.77,4.12,4.12,0,0,1-1.08-1.36,4.58,4.58,0,0,1-.43-2.06,4.51,4.51,0,0,1,.43-2.05,4.1,4.1,0,0,1,2.5-2.13,4.75,4.75,0,0,1,1.42-.24h9.22V353H10.47a1.57,1.57,0,0,0-1.21.47,2,2,0,0,0,0,2.48,1.6,1.6,0,0,0,1.21.45h6.25a3.81,3.81,0,0,1,.92.12,4.45,4.45,0,0,1,1,.33,4.56,4.56,0,0,1,.93.59,3.6,3.6,0,0,1,.77.83,3.94,3.94,0,0,1,.54,1.13,4.84,4.84,0,0,1,.2,1.43Z" transform="translate(0 0)" style="fill: #f0f0f0"/>
    <path id="path5273" d="M39,365.2H35.13L29,359.09H27.13v-2.72H29l6.09-6.11H39l-7.68,7.47Zm-12.93,0H23.34V350.26h2.71Z" transform="translate(0 0)" style="fill: #f0f0f0"/>
  </g>
  <g id="text5205">
    <path id="path5340" d="M10,27.34a3.16,3.16,0,0,1-.89,2.24,3,3,0,0,1-1,.65,3.39,3.39,0,0,1-1.25.23H3.17a.76.76,0,0,1-.27-.05.69.69,0,0,1-.22-.14.64.64,0,0,1-.14-.22.6.6,0,0,1-.06-.27v-6.1a.6.6,0,0,1,.06-.27.64.64,0,0,1,.14-.22A.71.71,0,0,1,2.9,23,.76.76,0,0,1,3.17,23H6.82a3.2,3.2,0,0,1,1.25.24,2.89,2.89,0,0,1,1,.65,3,3,0,0,1,.65,1A3.2,3.2,0,0,1,10,26.12ZM8.59,26.12a1.9,1.9,0,0,0-.13-.73,1.46,1.46,0,0,0-.36-.55,1.42,1.42,0,0,0-.56-.36,1.81,1.81,0,0,0-.72-.13h-3v4.76h3A1.81,1.81,0,0,0,7.54,29a1.42,1.42,0,0,0,.56-.36,1.46,1.46,0,0,0,.36-.55,1.93,1.93,0,0,0,.13-.73Z" transform="translate(0 0)" style="fill: #f0f0f0"/>
    <path id="path5342" d="M12.51,23.68H11.16V22.45h1.35Zm0,6.78H11.16V24.83h1.35Z" transform="translate(0 0)" style="fill: #f0f0f0"/>
    <path id="path5344" d="M20.52,24.83A12,12,0,0,1,20,26.24a10.38,10.38,0,0,1-.7,1.32,8.55,8.55,0,0,1-.9,1.16,5.27,5.27,0,0,1-1.08.92,5.34,5.34,0,0,1-1.3.61,4.94,4.94,0,0,1-1.52.22.75.75,0,0,1-.26,0,.55.55,0,0,1-.22-.14.8.8,0,0,1-.15-.21.86.86,0,0,1,0-.27v-5h1.36v4.24a2.2,2.2,0,0,0,.94-.22,3.68,3.68,0,0,0,.87-.56,5.72,5.72,0,0,0,.75-.8,8.73,8.73,0,0,0,.62-.92,8.89,8.89,0,0,0,.46-.93,6.58,6.58,0,0,0,.28-.81Z" transform="translate(0 0)" style="fill: #f0f0f0"/>
    <path id="path5346" d="M22.38,23.68H21V22.45h1.35Zm0,6.78H21V24.83h1.35Z" transform="translate(0 0)" style="fill: #f0f0f0"/>
    <path id="path5348" d="M29.85,28.56a2.47,2.47,0,0,1-.08.63,1.86,1.86,0,0,1-.24.49,1.67,1.67,0,0,1-.34.36,1.85,1.85,0,0,1-.4.24,2.39,2.39,0,0,1-.43.14,2,2,0,0,1-.41,0H25.51a2.08,2.08,0,0,1-.63-.09,1.78,1.78,0,0,1-.48-.23,1.71,1.71,0,0,1-.36-.35,1.63,1.63,0,0,1-.24-.4,1.73,1.73,0,0,1-.14-.42,2.08,2.08,0,0,1-.05-.41V26.73a1.94,1.94,0,0,1,.19-.88,1.78,1.78,0,0,1,.48-.59,1.86,1.86,0,0,1,.62-.33,2,2,0,0,1,.61-.1H28v1.36H25.52a.53.53,0,0,0-.41.14.54.54,0,0,0-.14.4v1.82a.6.6,0,0,0,.13.42.58.58,0,0,0,.41.14H28a.55.55,0,0,0,.41-.14.58.58,0,0,0,.14-.41V22.45h1.35Z" transform="translate(0 0)" style="fill: #f0f0f0"/>
    <path id="path5350" d="M37.21,26.7a2,2,0,0,1-.1.61,1.75,1.75,0,0,1-.32.6,1.69,1.69,0,0,1-.58.46,1.74,1.74,0,0,1-.86.19H32.91V27.27h2.44a.57.57,0,0,0,.43-.16.64.64,0,0,0,.15-.42.52.52,0,0,0-.18-.42.57.57,0,0,0-.4-.15H32.91a.55.55,0,0,0-.43.17.6.6,0,0,0-.15.42V28.6a.54.54,0,0,0,.16.42.64.64,0,0,0,.43.15h2.43v1.29H32.91a2,2,0,0,1-.61-.1,1.71,1.71,0,0,1-.61-.32,1.75,1.75,0,0,1-.46-.57A1.8,1.8,0,0,1,31,28.6V26.7a2,2,0,0,1,.1-.61,1.74,1.74,0,0,1,.32-.6A1.69,1.69,0,0,1,32,25a1.8,1.8,0,0,1,.87-.19h2.44a2,2,0,0,1,1.21.42,2,2,0,0,1,.47.58A1.93,1.93,0,0,1,37.21,26.7Z" transform="translate(0 0)" style="fill: #f0f0f0"/>
    <path id="path5352" d="M43.06,26.19H40a.53.53,0,0,0-.42.14.5.5,0,0,0-.14.4v3.73H38.1V26.73a2,2,0,0,1,.09-.63,1.8,1.8,0,0,1,.24-.48,1.67,1.67,0,0,1,.34-.36,2.42,2.42,0,0,1,.4-.25,2.35,2.35,0,0,1,.43-.13,2,2,0,0,1,.4-.05h3.06Z" transform="translate(0 0)" style="fill: #f0f0f0"/>
  </g>
  <g id="text5209">
    <path id="path5317" d="M12.32,57.82h-1V56.9h1Zm0,5.09h-1V58.69h1Z" transform="translate(0 0)" style="fill: #f0f0f0"/>
    <path id="path5319" d="M18,62.91H17V60.57a1,1,0,0,0-.07-.36.83.83,0,0,0-.46-.44.8.8,0,0,0-.34-.07H14.31v3.21h-1V59.19a.58.58,0,0,1,0-.19.38.38,0,0,1,.11-.16.39.39,0,0,1,.17-.11.41.41,0,0,1,.19,0h2.29a2,2,0,0,1,.41,0,2.3,2.3,0,0,1,.42.14,1.85,1.85,0,0,1,.4.24,1.63,1.63,0,0,1,.33.36,1.8,1.8,0,0,1,.24.48,2.33,2.33,0,0,1,.08.62Z" transform="translate(0 0)" style="fill: #f0f0f0"/>
    <path id="path5321" d="M23.53,61.48a1.43,1.43,0,0,1-.07.48,1.2,1.2,0,0,1-.17.36,1.12,1.12,0,0,1-.26.27,1.19,1.19,0,0,1-.3.18,1.35,1.35,0,0,1-.32.11l-.3,0H20.27v-1h1.84a.4.4,0,0,0,.3-.1.41.41,0,0,0,.1-.31V60.12a.4.4,0,0,0-.1-.31.41.41,0,0,0-.3-.11H20.28a.42.42,0,0,0-.31.11.41.41,0,0,0-.11.3v4.12h-1V60.11a1.73,1.73,0,0,1,.06-.47,1.51,1.51,0,0,1,.18-.36,1.12,1.12,0,0,1,.26-.27,1.17,1.17,0,0,1,.3-.19,2,2,0,0,1,.32-.1l.3,0h1.84a1.6,1.6,0,0,1,.46.06,1.82,1.82,0,0,1,.37.18,1.6,1.6,0,0,1,.27.25,1.92,1.92,0,0,1,.18.31,1.19,1.19,0,0,1,.1.32,1,1,0,0,1,0,.3Z" transform="translate(0 0)" style="fill: #f0f0f0"/>
    <path id="path5323" d="M29,62.4a.45.45,0,0,1,0,.2.62.62,0,0,1-.11.17.44.44,0,0,1-.16.1.41.41,0,0,1-.19,0h-2.3a1.87,1.87,0,0,1-.4,0,2.3,2.3,0,0,1-.42-.14,1.85,1.85,0,0,1-.4-.24,1.67,1.67,0,0,1-.34-.36,1.78,1.78,0,0,1-.23-.48,2,2,0,0,1-.09-.62V58.69h1V61a1,1,0,0,0,.06.36.77.77,0,0,0,.19.27.77.77,0,0,0,.62.23H28v-3.2h1Z" transform="translate(0 0)" style="fill: #f0f0f0"/>
    <path id="path5325" d="M33.82,59.7H32.05v3.21H31V59.7H29.7v-1H31V57.31h1v1.38h1.77Z" transform="translate(0 0)" style="fill: #f0f0f0"/>
  </g>
  <g id="text856">
    <path id="path875" d="M7.22,17.21H4v-1H7.22Zm.46-2.3H3.61V19.5h-1V14.41a.45.45,0,0,1,0-.2.44.44,0,0,1,.1-.16.45.45,0,0,1,.17-.11.45.45,0,0,1,.2,0H7.68Z" transform="translate(0 0)" style="fill: #f0f0f0"/>
    <path id="path877" d="M9.41,14.41h-1v-.92h1Zm0,5.09h-1V15.28h1Z" transform="translate(0 0)" style="fill: #f0f0f0"/>
    <path id="path879" d="M15,18.07a1.15,1.15,0,0,1,0,.31,1.31,1.31,0,0,1-.1.32,1.59,1.59,0,0,1-.18.3,1.12,1.12,0,0,1-.27.26,1.33,1.33,0,0,1-.36.17,1.41,1.41,0,0,1-.47.07H11.79l-.31,0a1.35,1.35,0,0,1-.32-.11,1.19,1.19,0,0,1-.3-.18,1.12,1.12,0,0,1-.26-.27,1.33,1.33,0,0,1-.17-.36,1.43,1.43,0,0,1-.07-.48V13.49h1v4.58a.41.41,0,0,0,.11.31.44.44,0,0,0,.3.1h1.83a.36.36,0,0,0,.29-.11.37.37,0,0,0,.11-.3V16.7a.37.37,0,0,0-.11-.3.42.42,0,0,0-.29-.11H11.79v-1h1.83a1.6,1.6,0,0,1,.3,0,2,2,0,0,1,.32.1,1.17,1.17,0,0,1,.3.19,1.12,1.12,0,0,1,.26.27,1.2,1.2,0,0,1,.17.36,1.37,1.37,0,0,1,.07.47Z" transform="translate(0 0)" style="fill: #f0f0f0"/>
    <path id="path881" d="M20.51,18.07a1.43,1.43,0,0,1-.07.48,1.33,1.33,0,0,1-.17.36,1.12,1.12,0,0,1-.26.27,1,1,0,0,1-.3.18,1.35,1.35,0,0,1-.32.11l-.31,0H17.25a1.61,1.61,0,0,1-.46-.07,1.34,1.34,0,0,1-.47-.25,1.42,1.42,0,0,1-.35-.44,1.48,1.48,0,0,1-.14-.67V16.7A1.46,1.46,0,0,1,16,16a1.42,1.42,0,0,1,.35-.44,1.34,1.34,0,0,1,.47-.25,1.61,1.61,0,0,1,.46-.07h1.83a1.41,1.41,0,0,1,.67.14,1.29,1.29,0,0,1,.44.35,1.45,1.45,0,0,1,.24.46,1.71,1.71,0,0,1,.08.47Zm-1-1.36a.44.44,0,0,0-.1-.32.48.48,0,0,0-.31-.1H17.26a.42.42,0,0,0-.31.11.41.41,0,0,0-.11.3v1.37a.37.37,0,0,0,.42.41h1.82a.36.36,0,0,0,.41-.41Z" transform="translate(0 0)" style="fill: #f0f0f0"/>
    <path id="path883" d="M26.05,19.5H25V17.16A.8.8,0,0,0,25,16.8a.64.64,0,0,0-.18-.27.62.62,0,0,0-.28-.17.77.77,0,0,0-.34-.07H22.38V19.5h-1V15.78a.41.41,0,0,1,0-.19.31.31,0,0,1,.11-.16.36.36,0,0,1,.16-.11.45.45,0,0,1,.2,0h2.29a1.87,1.87,0,0,1,.4,0,2.3,2.3,0,0,1,.42.14,1.63,1.63,0,0,1,.4.24,1.67,1.67,0,0,1,.34.36,1.78,1.78,0,0,1,.23.48,2,2,0,0,1,.09.62Z" transform="translate(0 0)" style="fill: #f0f0f0"/>
    <path id="path885" d="M31.3,18.1a1.61,1.61,0,0,1-.07.46A1.4,1.4,0,0,1,31,19a1.29,1.29,0,0,1-.44.35,1.38,1.38,0,0,1-.64.14H28.07a1.5,1.5,0,0,1-.45-.07,1.45,1.45,0,0,1-.46-.24,1.4,1.4,0,0,1-.34-.44,1.3,1.3,0,0,1-.14-.65,1.61,1.61,0,0,1,.07-.46,1.4,1.4,0,0,1,.24-.45,1.25,1.25,0,0,1,.43-.35,1.45,1.45,0,0,1,.65-.14h1.84v1H28.07a.41.41,0,0,0-.32.13.45.45,0,0,0-.11.31.37.37,0,0,0,.13.31.49.49,0,0,0,.31.11h1.83a.44.44,0,0,0,.32-.12.5.5,0,0,0,.11-.32V16.68a.39.39,0,0,0-.13-.32.41.41,0,0,0-.3-.12H27.68v-1h2.23a1.5,1.5,0,0,1,.45.07,1.4,1.4,0,0,1,.45.24,1.35,1.35,0,0,1,.49,1.09Z" transform="translate(0 0)" style="fill: #f0f0f0"/>
    <path id="path887" d="M36.27,19.5H33.52a1.67,1.67,0,0,1-.47-.07,1.3,1.3,0,0,1-.46-.25,1.44,1.44,0,0,1-.36-.44,1.48,1.48,0,0,1-.14-.67V16.7a1.71,1.71,0,0,1,0-.31,1.86,1.86,0,0,1,.29-.62,1.6,1.6,0,0,1,.27-.25,1.82,1.82,0,0,1,.37-.18,1.63,1.63,0,0,1,.47-.06h2.75v1H33.52a.46.46,0,0,0-.31.1.44.44,0,0,0-.1.32v1.36a.41.41,0,0,0,.1.31.45.45,0,0,0,.31.1h2.75Z" transform="translate(0 0)" style="fill: #f0f0f0"/>
    <path id="path889" d="M41.18,19.5H38.42a1.61,1.61,0,0,1-.46-.07,1.22,1.22,0,0,1-.46-.25,1.44,1.44,0,0,1-.36-.44,1.48,1.48,0,0,1-.14-.67V16.7a1.71,1.71,0,0,1,0-.31,1.28,1.28,0,0,1,.11-.31,1.22,1.22,0,0,1,.45-.56,1.31,1.31,0,0,1,.83-.24h2.76v1H38.42a.45.45,0,0,0-.3.1.44.44,0,0,0-.1.32v1.36a.36.36,0,0,0,.41.41h2.75Z" transform="translate(0 0)" style="fill: #f0f0f0"/>
    <path id="path891" d="M43.05,14.41H42v-.92h1Zm0,5.09H42V15.28h1Z" transform="translate(0 0)" style="fill: #f0f0f0"/>
  </g>
  <g id="_1" data-name="1">
    <path d="M3.15,77.23H2v-5.1H1V71H3.15Z" transform="translate(0 0)" style="fill: #fff"/>
  </g>
  <g id="_2" data-name="2">
    <path d="M6.72,112.23H1v-2.09a1.37,1.37,0,0,1,0-.34,1.65,1.65,0,0,1,.11-.36,1.68,1.68,0,0,1,.2-.34,1.58,1.58,0,0,1,.3-.28,1.42,1.42,0,0,1,.41-.2,1.67,1.67,0,0,1,.52-.08H5.12a.42.42,0,0,0,.34-.11.45.45,0,0,0,.12-.34v-.5a.44.44,0,0,0-.12-.34.42.42,0,0,0-.33-.12H1.51V106H5.13a1.68,1.68,0,0,1,.52.07,1.74,1.74,0,0,1,.41.2,1.64,1.64,0,0,1,.3.29,1.38,1.38,0,0,1,.2.33,1.27,1.27,0,0,1,.12.36,1.35,1.35,0,0,1,0,.33v.51a1.62,1.62,0,0,1-.16.74,1.51,1.51,0,0,1-.4.49,1.6,1.6,0,0,1-.51.28,2.06,2.06,0,0,1-.52.08H2.58a.46.46,0,0,0-.22,0,.34.34,0,0,0-.13.1,1,1,0,0,0-.07.15l0,.17v1H6.72Z" transform="translate(0 0)" style="fill: #fff"/>
  </g>
  <g id="_3" data-name="3">
    <path d="M6.21,145.64a1.65,1.65,0,0,1-.16.74,1.51,1.51,0,0,1-.4.49,1.4,1.4,0,0,1-.51.27,1.72,1.72,0,0,1-.52.09H1V146.1H4.62A.44.44,0,0,0,5,146a.45.45,0,0,0,.11-.34v-1H1v-1.14H5.07v-.95a.4.4,0,0,0-.45-.46H1V141H4.62a1.68,1.68,0,0,1,.52.07,1.56,1.56,0,0,1,.41.2,1.56,1.56,0,0,1,.5.62,1.69,1.69,0,0,1,.12.36,2.11,2.11,0,0,1,0,.33Z" transform="translate(0 0)" style="fill: #fff"/>
  </g>
  <g id="_5" data-name="5">
    <path d="M6.72,180.64a1.37,1.37,0,0,1,0,.34,1.12,1.12,0,0,1-.12.35,1.68,1.68,0,0,1-.2.34,1.15,1.15,0,0,1-.3.28,1.31,1.31,0,0,1-.41.2,1.6,1.6,0,0,1-.51.08H1V181.1H5.14a.41.41,0,0,0,.32-.13.48.48,0,0,0,.12-.33v-.5a.5.5,0,0,0-.11-.34.45.45,0,0,0-.34-.12H2.58a1.55,1.55,0,0,1-.74-.16,1.48,1.48,0,0,1-.75-.91,1.72,1.72,0,0,1-.09-.52V176H6.2v1.13H2.13v1a.44.44,0,0,0,.12.34.43.43,0,0,0,.33.11H5.14a1.72,1.72,0,0,1,.51.09,1.48,1.48,0,0,1,.51.27,1.55,1.55,0,0,1,.4.5,1.62,1.62,0,0,1,.16.74Z" transform="translate(0 0)" style="fill: #fff"/>
  </g>
  <g id="_8" data-name="8">
    <path d="M6.72,215.64a1.37,1.37,0,0,1,0,.34,1.12,1.12,0,0,1-.12.35,1.68,1.68,0,0,1-.2.34,1.58,1.58,0,0,1-.3.28,1.42,1.42,0,0,1-.41.2,1.67,1.67,0,0,1-.52.08H2.58a1.61,1.61,0,0,1-.51-.09,1.36,1.36,0,0,1-.52-.27,1.48,1.48,0,0,1-.39-.49,1.53,1.53,0,0,1-.16-.74v-.5a1.45,1.45,0,0,1,0-.35,1.65,1.65,0,0,1,.11-.36,2.39,2.39,0,0,1,.21-.34,1.61,1.61,0,0,1,.3-.28,1.65,1.65,0,0,1-.11-.36,1.59,1.59,0,0,1,0-.36v-.5a1.53,1.53,0,0,1,.16-.74,1.29,1.29,0,0,1,.39-.49,1.36,1.36,0,0,1,.52-.27,1.61,1.61,0,0,1,.51-.09H4.62a1.72,1.72,0,0,1,.52.07,1.74,1.74,0,0,1,.41.2,1.56,1.56,0,0,1,.5.62,1.65,1.65,0,0,1,.11.36,1.37,1.37,0,0,1,0,.34v.5a1.68,1.68,0,0,1-.15.74,1.32,1.32,0,0,1,.26.22,1.21,1.21,0,0,1,.21.28,1.94,1.94,0,0,1,.15.36,2.14,2.14,0,0,1,0,.45Zm-1.14-.5a.45.45,0,0,0-.12-.34.45.45,0,0,0-.33-.12H2.58a.45.45,0,0,0-.33.13.48.48,0,0,0-.12.33v.5a.42.42,0,0,0,.13.33.41.41,0,0,0,.32.13H5.13a.42.42,0,0,0,.33-.13.48.48,0,0,0,.12-.33Zm-.51-2.55a.5.5,0,0,0-.11-.34.47.47,0,0,0-.34-.12H3.1a.43.43,0,0,0-.34.12.45.45,0,0,0-.11.34v.5a.44.44,0,0,0,.11.34.44.44,0,0,0,.33.11H4.62a.39.39,0,0,0,.45-.45Z" transform="translate(0 0)" style="fill: #fff"/>
  </g>
  <g id="_13" data-name="13">
    <path d="M3.15,252.23H2v-5.1H1V246H3.15Z" transform="translate(0 0)" style="fill: #fff"/>
    <path d="M9.63,250.64a1.53,1.53,0,0,1-.16.74,1.46,1.46,0,0,1-.91.76,1.61,1.61,0,0,1-.51.09H4.43V251.1H8.05a.45.45,0,0,0,.34-.12.5.5,0,0,0,.11-.34v-1H4.43v-1.14H8.5v-.95a.4.4,0,0,0-.45-.46H4.43V246H8.05a1.72,1.72,0,0,1,.52.07,1.5,1.5,0,0,1,.4.2,1.18,1.18,0,0,1,.3.29,1.15,1.15,0,0,1,.21.33,1.65,1.65,0,0,1,.11.36,1.35,1.35,0,0,1,0,.33Z" transform="translate(0 0)" style="fill: #fff"/>
  </g>
  <g id="_21" data-name="21">
    <path d="M6.72,287.23H1v-2.09a1.37,1.37,0,0,1,0-.34,1.65,1.65,0,0,1,.11-.36,1.68,1.68,0,0,1,.2-.34,1.58,1.58,0,0,1,.3-.28,1.42,1.42,0,0,1,.41-.2,1.67,1.67,0,0,1,.52-.08H5.12a.42.42,0,0,0,.34-.11.45.45,0,0,0,.12-.34v-.5a.45.45,0,0,0-.12-.34.42.42,0,0,0-.33-.12H1.51V281H5.13a1.68,1.68,0,0,1,.52.07,1.74,1.74,0,0,1,.41.2,1.64,1.64,0,0,1,.3.29,1.38,1.38,0,0,1,.2.33,1.27,1.27,0,0,1,.12.36,1.37,1.37,0,0,1,0,.34v.5a1.62,1.62,0,0,1-.16.74,1.51,1.51,0,0,1-.4.49,1.6,1.6,0,0,1-.51.28,2.06,2.06,0,0,1-.52.08H2.58a.62.62,0,0,0-.22,0,.28.28,0,0,0-.13.11.61.61,0,0,0-.07.14l0,.17v1H6.72Z" transform="translate(0 0)" style="fill: #fff"/>
    <path d="M9.69,287.23H8.56v-5.1h-1V281H9.69Z" transform="translate(0 0)" style="fill: #fff"/>
  </g>
  <g id="_34" data-name="34">
    <path d="M6.21,320.64a1.65,1.65,0,0,1-.16.74,1.51,1.51,0,0,1-.4.49,1.4,1.4,0,0,1-.51.27,1.72,1.72,0,0,1-.52.09H1V321.1H4.62A.44.44,0,0,0,5,321a.45.45,0,0,0,.11-.34v-1H1v-1.14H5.07v-1a.4.4,0,0,0-.45-.46H1V316H4.62a1.68,1.68,0,0,1,.52.07,1.56,1.56,0,0,1,.41.2,1.56,1.56,0,0,1,.5.62,1.69,1.69,0,0,1,.12.36,2.11,2.11,0,0,1,0,.33Z" transform="translate(0 0)" style="fill: #fff"/>
    <path d="M13,322.23H11.86v-2.55h-4a.51.51,0,0,1-.22,0,.46.46,0,0,1-.18-.13.36.36,0,0,1-.12-.18.54.54,0,0,1,0-.22V316H8.41v2.54h3.45V316H13Z" transform="translate(0 0)" style="fill: #fff"/>
  </g>
</svg>
