<svg id="SvgjsSvg1006" xmlns="http://www.w3.org/2000/svg" width="45" height="380" viewBox="0 0 45 380">
  <title>PrimeClockDivider</title>
  <path id="SvgjsRect1008" d="M0,0H45V380H0Z" transform="translate(0 0)" style="fill: #222"/>
  <rect id="SvgjsRect1009" x="7.5" y="33" width="30" height="32" style="fill: #91b06f"/>
  <rect id="SvgjsRect1010" y="70" width="35" height="30" style="fill: #797979"/>
  <polygon id="SvgjsPolygon1011" points="35 70 45 85 35 100 35 70" style="fill: #797979"/>
  <rect id="SvgjsRect1012" y="105" width="35" height="30" style="fill: #797979"/>
  <polygon id="SvgjsPolygon1013" points="35 105 45 120 35 135 35 105" style="fill: #797979"/>
  <rect id="SvgjsRect1014" y="140" width="35" height="30" style="fill: #797979"/>
  <polygon id="SvgjsPolygon1015" points="35 140 45 155 35 170 35 140" style="fill: #797979"/>
  <path id="SvgjsRect1016" d="M0,175H35v30H0Z" transform="translate(0 0)" style="fill: #797979"/>
  <polygon id="SvgjsPolygon1017" points="35 175 45 190 35 205 35 175" style="fill: #797979"/>
  <rect id="SvgjsRect1018" y="210" width="35" height="30" style="fill: #797979"/>
  <polygon id="SvgjsPolygon1019" points="35 210 45 225 35 240 35 210" style="fill: #797979"/>
  <rect id="SvgjsRect1020" y="245" width="35" height="30" style="fill: #797979"/>
  <polygon id="SvgjsPolygon1021" points="35 245 45 260 35 275 35 245" style="fill: #797979"/>
  <rect id="SvgjsRect1022" y="280" width="35" height="30" style="fill: #797979"/>
  <polygon id="SvgjsPolygon1023" points="35 280 45 295 35 310 35 280" style="fill: #797979"/>
  <rect id="SvgjsRect1024" y="315" width="35" height="30" style="fill: #797979"/>
  <polygon id="SvgjsPolygon1025" points="35 315 45 330 35 345 35 315" style="fill: #797979"/>
  <g id="text4650">
    <path id="path5271" d="M21.05,360.8a4.66,4.66,0,0,1-.21,1.45,4.36,4.36,0,0,1-.53,1.13,3.63,3.63,0,0,1-.78.83,4.51,4.51,0,0,1-.93.56,3.88,3.88,0,0,1-1,.32,4.35,4.35,0,0,1-.92.11H6.25v-2.71H16.7a1.53,1.53,0,0,0,1.2-.46,1.66,1.66,0,0,0,.44-1.23,2.06,2.06,0,0,0-.11-.68,1.64,1.64,0,0,0-.34-.55,1.29,1.29,0,0,0-.52-.35,1.78,1.78,0,0,0-.67-.13H10.47a5,5,0,0,1-1.42-.22,4.38,4.38,0,0,1-1.42-.77,4.12,4.12,0,0,1-1.08-1.36,4.58,4.58,0,0,1-.43-2.06,4.51,4.51,0,0,1,.43-2.05,4.1,4.1,0,0,1,2.5-2.13,4.75,4.75,0,0,1,1.42-.24h9.22V353H10.47a1.57,1.57,0,0,0-1.21.47,2,2,0,0,0,0,2.48,1.6,1.6,0,0,0,1.21.45h6.25a3.81,3.81,0,0,1,.92.12,4.45,4.45,0,0,1,1,.33,4.56,4.56,0,0,1,.93.59,3.6,3.6,0,0,1,.77.83,3.94,3.94,0,0,1,.54,1.13,4.84,4.84,0,0,1,.2,1.43Z" transform="translate(0 0)" style="fill: #f0f0f0"/>
    <path id="path5273" d="M39,365.2H35.13L29,359.09H27.13v-2.72H29l6.09-6.11H39l-7.68,7.47Zm-12.93,0H23.34V350.26h2.71Z" transform="translate(0 0)" style="fill: #f0f0f0"/>
  </g>
  <g id="text5205">
    <path id="path5340" d="M10,27.34a3.16,3.16,0,0,1-.89,2.24,3,3,0,0,1-1,.65,3.39,3.39,0,0,1-1.25.23H3.17a.76.76,0,0,1-.27-.05.69.69,0,0,1-.22-.14.64.64,0,0,1-.14-.22.6.6,0,0,1-.06-.27v-6.1a.6.6,0,0,1,.06-.27.64.64,0,0,1,.14-.22A.71.71,0,0,1,2.9,23,.76.76,0,0,1,3.17,23H6.82a3.2,3.2,0,0,1,1.25.24,2.89,2.89,0,0,1,1,.65,3,3,0,0,1,.65,1A3.2,3.2,0,0,1,10,26.12ZM8.59,26.12a1.9,1.9,0,0,0-.13-.73,1.46,1.46,0,0,0-.36-.55,1.42,1.42,0,0,0-.56-.36,1.81,1.81,0,0,0-.72-.13h-3v4.76h3A1.81,1.81,0,0,0,7.54,29a1.42,1.42,0,0,0,.56-.36,1.46,1.46,0,0,0,.36-.55,1.93,1.93,0,0,0,.13-.73Z" transform="translate(0 0)" style="fill: #f0f0f0"/>
    <path id="path5342" d="M12.51,23.68H11.16V22.45h1.35Zm0,6.78H11.16V24.83h1.35Z" transform="translate(0 0)" style="fill: #f0f0f0"/>
    <path id="path5344" d="M20.52,24.83A12,12,0,0,1,20,26.24a10.38,10.38,0,0,1-.7,1.32,8.55,8.55,0,0,1-.9,1.16,5.27,5.27,0,0,1-1.08.92,5.34,5.34,0,0,1-1.3.61,4.94,4.94,0,0,1-1.52.22.75.75,0,0,1-.26,0,.55.55,0,0,1-.22-.14.8.8,0,0,1-.15-.21.86.86,0,0,1,0-.27v-5h1.36v4.24a2.2,2.2,0,0,0,.94-.22,3.68,3.68,0,0,0,.87-.56,5.72,5.72,0,0,0,.75-.8,8.73,8.73,0,0,0,.62-.92,8.89,8.89,0,0,0,.46-.93,6.58,6.58,0,0,0,.28-.81Z" transform="translate(0 0)" style="fill: #f0f0f0"/>
    <path id="path5346" d="M22.38,23.68H21V22.45h1.35Zm0,6.78H21V24.83h1.35Z" transform="translate(0 0)" style="fill: #f0f0f0"/>
    <path id="path5348" d="M29.85,28.56a2.47,2.47,0,0,1-.08.63,1.86,1.86,0,0,1-.24.49,1.67,1.67,0,0,1-.34.36,1.85,1.85,0,0,1-.4.24,2.39,2.39,0,0,1-.43.14,2,2,0,0,1-.41,0H25.51a2.08,2.08,0,0,1-.63-.09,1.78,1.78,0,0,1-.48-.23,1.71,1.71,0,0,1-.36-.35,1.63,1.63,0,0,1-.24-.4,1.73,1.73,0,0,1-.14-.42,2.08,2.08,0,0,1-.05-.41V26.73a1.94,1.94,0,0,1,.19-.88,1.78,1.78,0,0,1,.48-.59,1.86,1.86,0,0,1,.62-.33,2,2,0,0,1,.61-.1H28v1.36H25.52a.53.53,0,0,0-.41.14.54.54,0,0,0-.14.4v1.82a.6.6,0,0,0,.13.42.58.58,0,0,0,.41.14H28a.55.55,0,0,0,.41-.14.58.58,0,0,0,.14-.41V22.45h1.35Z" transform="translate(0 0)" style="fill: #f0f0f0"/>
    <path id="path5350" d="M37.21,26.7a2,2,0,0,1-.1.61,1.75,1.75,0,0,1-.32.6,1.69,1.69,0,0,1-.58.46,1.74,1.74,0,0,1-.86.19H32.91V27.27h2.44a.57.57,0,0,0,.43-.16.64.64,0,0,0,.15-.42.52.52,0,0,0-.18-.42.57.57,0,0,0-.4-.15H32.91a.55.55,0,0,0-.43.17.6.6,0,0,0-.15.42V28.6a.54.54,0,0,0,.16.42.64.64,0,0,0,.43.15h2.43v1.29H32.91a2,2,0,0,1-.61-.1,1.71,1.71,0,0,1-.61-.32,1.75,1.75,0,0,1-.46-.57A1.8,1.8,0,0,1,31,28.6V26.7a2,2,0,0,1,.1-.61,1.74,1.74,0,0,1,.32-.6A1.69,1.69,0,0,1,32,25a1.8,1.8,0,0,1,.87-.19h2.44a2,2,0,0,1,1.21.42,2,2,0,0,1,.47.58A1.93,1.93,0,0,1,37.21,26.7Z" transform="translate(0 0)" style="fill: #f0f0f0"/>
    <path id="path5352" d="M43.06,26.19H40a.53.53,0,0,0-.42.14.5.5,0,0,0-.14.4v3.73H38.1V26.73a2,2,0,0,1,.09-.63,1.8,1.8,0,0,1,.24-.48,1.67,1.67,0,0,1,.34-.36,2.42,2.42,0,0,1,.4-.25,2.35,2.35,0,0,1,.43-.13,2,2,0,0,1,.4-.05h3.06Z" transform="translate(0 0)" style="fill: #f0f0f0"/>
  </g>
  <g id="text5209">
    <path id="path5317" d="M12.32,57.82h-1V56.9h1Zm0,5.09h-1V58.69h1Z" transform="translate(0 0)" style="fill: #f0f0f0"/>
    <path id="path5319" d="M18,62.91H17V60.57a1,1,0,0,0-.07-.36.83.83,0,0,0-.46-.44.8.8,0,0,0-.34-.07H14.31v3.21h-1V59.19a.58.58,0,0,1,0-.19.38.38,0,0,1,.11-.16.39.39,0,0,1,.17-.11.41.41,0,0,1,.19,0h2.29a2,2,0,0,1,.41,0,2.3,2.3,0,0,1,.42.14,1.85,1.85,0,0,1,.4.24,1.63,1.63,0,0,1,.33.36,1.8,1.8,0,0,1,.24.48,2.33,2.33,0,0,1,.08.62Z" transform="translate(0 0)" style="fill: #f0f0f0"/>
    <path id="path5321" d="M23.53,61.48a1.43,1.43,0,0,1-.07.48,1.2,1.2,0,0,1-.17.36,1.12,1.12,0,0,1-.26.27,1.19,1.19,0,0,1-.3.18,1.35,1.35,0,0,1-.32.11l-.3,0H20.27v-1h1.84a.4.4,0,0,0,.3-.1.41.41,0,0,0,.1-.31V60.12a.4.4,0,0,0-.1-.31.41.41,0,0,0-.3-.11H20.28a.42.42,0,0,0-.31.11.41.41,0,0,0-.11.3v4.12h-1V60.11a1.73,1.73,0,0,1,.06-.47,1.51,1.51,0,0,1,.18-.36,1.12,1.12,0,0,1,.26-.27,1.17,1.17,0,0,1,.3-.19,2,2,0,0,1,.32-.1l.3,0h1.84a1.6,1.6,0,0,1,.46.06,1.82,1.82,0,0,1,.37.18,1.6,1.6,0,0,1,.27.25,1.92,1.92,0,0,1,.18.31,1.19,1.19,0,0,1,.1.32,1,1,0,0,1,0,.3Z" transform="translate(0 0)" style="fill: #f0f0f0"/>
    <path id="path5323" d="M29,62.4a.45.45,0,0,1,0,.2.62.62,0,0,1-.11.17.44.44,0,0,1-.16.1.41.41,0,0,1-.19,0h-2.3a1.87,1.87,0,0,1-.4,0,2.3,2.3,0,0,1-.42-.14,1.85,1.85,0,0,1-.4-.24,1.67,1.67,0,0,1-.34-.36,1.78,1.78,0,0,1-.23-.48,2,2,0,0,1-.09-.62V58.69h1V61a1,1,0,0,0,.06.36.77.77,0,0,0,.19.27.77.77,0,0,0,.62.23H28v-3.2h1Z" transform="translate(0 0)" style="fill: #f0f0f0"/>
    <path id="path5325" d="M33.82,59.7H32.05v3.21H31V59.7H29.7v-1H31V57.31h1v1.38h1.77Z" transform="translate(0 0)" style="fill: #f0f0f0"/>
  </g>
  <g id="text1405">
    <path id="path1950" d="M14.23,15.66a2.57,2.57,0,0,1-.12.82,2.17,2.17,0,0,1-.31.65,2.24,2.24,0,0,1-.45.47,2.46,2.46,0,0,1-.53.33,3,3,0,0,1-.56.18,2.62,2.62,0,0,1-.54.06H8.66V16.81h3.06a1.63,1.63,0,0,0,.47-.1,1.08,1.08,0,0,0,.37-.24.89.89,0,0,0,.23-.34,1.19,1.19,0,0,0,.09-.47V15a2.31,2.31,0,0,0-.11-.47,1.31,1.31,0,0,0-.23-.36,1.09,1.09,0,0,0-.35-.24,1.13,1.13,0,0,0-.47-.08H8.67a.53.53,0,0,0-.41.14.56.56,0,0,0-.14.4V20H6.77V14.43A2,2,0,0,1,7,13.55,1.78,1.78,0,0,1,7.43,13a1.67,1.67,0,0,1,.62-.32,2,2,0,0,1,.61-.11h3.06a2.68,2.68,0,0,1,.83.12,2.53,2.53,0,0,1,.64.31,2,2,0,0,1,.47.45A2.48,2.48,0,0,1,14,14a2.31,2.31,0,0,1,.19.56,2.61,2.61,0,0,1,.06.53Z" transform="translate(0 0)" style="fill: #f0f0f0"/>
    <path id="path1952" d="M20.15,15.72h-3a.59.59,0,0,0-.42.14.56.56,0,0,0-.14.41V20H15.19V16.27a2,2,0,0,1,.09-.63,1.78,1.78,0,0,1,.23-.48,1.47,1.47,0,0,1,.34-.36,2,2,0,0,1,.41-.25,1.69,1.69,0,0,1,.42-.13,2.08,2.08,0,0,1,.41-.05h3.06Z" transform="translate(0 0)" style="fill: #f0f0f0"/>
    <path id="path1954" d="M22.41,13.21H21.05V12h1.36Zm0,6.79H21.05V14.37h1.36Z" transform="translate(0 0)" style="fill: #f0f0f0"/>
    <path id="path1956" d="M28.72,20H27.37V16.27a.56.56,0,0,0-.14-.41.57.57,0,0,0-.42-.14H25.05V20H23.7V15a.75.75,0,0,1,.05-.26.51.51,0,0,1,.15-.21.8.8,0,0,1,.21-.15.86.86,0,0,1,.27-.05h2.44a2,2,0,0,1,.61.1,1.79,1.79,0,0,1,.61.32v-.42h1.84a2,2,0,0,1,.4.05,1.69,1.69,0,0,1,.42.13,1.73,1.73,0,0,1,.41.25,1.31,1.31,0,0,1,.34.36,1.78,1.78,0,0,1,.23.48,2,2,0,0,1,.09.63V20H30.42V16.27a.56.56,0,0,0-.14-.41.54.54,0,0,0-.4-.14H28.66a2.38,2.38,0,0,1,.06.55Z" transform="translate(0 0)" style="fill: #f0f0f0"/>
    <path id="path1958" d="M39.07,16.23a2.28,2.28,0,0,1-.1.61,1.88,1.88,0,0,1-.32.61,1.81,1.81,0,0,1-1.45.65H34.76V16.81H37.2a.54.54,0,0,0,.43-.16.64.64,0,0,0,.15-.43.53.53,0,0,0-.17-.41.59.59,0,0,0-.41-.15H34.76a.53.53,0,0,0-.43.17.59.59,0,0,0-.15.41v1.9a.54.54,0,0,0,.17.42.6.6,0,0,0,.42.15H37.2V20H34.76a2,2,0,0,1-.61-.1,1.67,1.67,0,0,1-.6-.32,1.89,1.89,0,0,1-.47-.57,1.93,1.93,0,0,1-.18-.87V16.23a2.3,2.3,0,0,1,.09-.6,1.93,1.93,0,0,1,.32-.6,1.69,1.69,0,0,1,.58-.47,1.8,1.8,0,0,1,.87-.19H37.2a2,2,0,0,1,.61.1,1.59,1.59,0,0,1,.6.32,1.69,1.69,0,0,1,.47.58A1.76,1.76,0,0,1,39.07,16.23Z" transform="translate(0 0)" style="fill: #f0f0f0"/>
  </g>
  <g id="_2" data-name="2">
    <path d="M6.72,77.23H1V75.14a1.37,1.37,0,0,1,0-.34,1.65,1.65,0,0,1,.11-.36,1.68,1.68,0,0,1,.2-.34,1.58,1.58,0,0,1,.3-.28,1.42,1.42,0,0,1,.41-.2,1.67,1.67,0,0,1,.52-.08H5.12a.46.46,0,0,0,.35-.11.5.5,0,0,0,.11-.34v-.5a.44.44,0,0,0-.12-.34.42.42,0,0,0-.33-.12H1.51V71H5.13a1.68,1.68,0,0,1,.52.07,1.74,1.74,0,0,1,.41.2,1.64,1.64,0,0,1,.3.29,1.38,1.38,0,0,1,.2.33,1.27,1.27,0,0,1,.12.36,1.35,1.35,0,0,1,0,.33v.51a1.49,1.49,0,0,1-.56,1.23,1.6,1.6,0,0,1-.51.28,2.06,2.06,0,0,1-.52.08H2.58a.46.46,0,0,0-.22,0,.28.28,0,0,0-.13.11.61.61,0,0,0-.07.14l0,.17v1H6.72Z" transform="translate(0 0)" style="fill: #fff"/>
  </g>
  <g id="_3" data-name="3">
    <path d="M6.21,112.16a1.65,1.65,0,0,1-.16.74,1.51,1.51,0,0,1-.4.49,1.4,1.4,0,0,1-.51.27,1.72,1.72,0,0,1-.52.09H1v-1.13H4.62A.44.44,0,0,0,5,112.5a.45.45,0,0,0,.11-.34v-1H1v-1.14H5.07v-1a.4.4,0,0,0-.45-.46H1v-1.13H4.62a1.68,1.68,0,0,1,.52.07,1.56,1.56,0,0,1,.41.2,1.56,1.56,0,0,1,.5.62,1.69,1.69,0,0,1,.12.36,2.11,2.11,0,0,1,0,.33Z" transform="translate(0 0)" style="fill: #fff"/>
  </g>
  <g id="_5" data-name="5">
    <path d="M6.72,147.16a1.37,1.37,0,0,1,0,.34,1.12,1.12,0,0,1-.12.35,1.68,1.68,0,0,1-.2.34,1.15,1.15,0,0,1-.3.28,1.31,1.31,0,0,1-.41.2,1.6,1.6,0,0,1-.51.08H1v-1.13H5.14a.45.45,0,0,0,.33-.13.52.52,0,0,0,.11-.33v-.5a.5.5,0,0,0-.11-.34.45.45,0,0,0-.34-.12H2.58a1.55,1.55,0,0,1-.74-.16,1.48,1.48,0,0,1-.75-.91,1.72,1.72,0,0,1-.09-.52v-2.09H6.2v1.13H2.13v1a.44.44,0,0,0,.12.34.43.43,0,0,0,.33.11H5.14a1.66,1.66,0,0,1,.51.09,1.48,1.48,0,0,1,.51.27,1.62,1.62,0,0,1,.4.49,1.57,1.57,0,0,1,.16.75Z" transform="translate(0 0)" style="fill: #fff"/>
  </g>
  <g id="_7" data-name="7">
    <path d="M6.13,177.81a.57.57,0,0,1,.08.28.54.54,0,0,1-.08.28L3,183.75H1.69l3-5.1H1v-1.13H5.64a.51.51,0,0,1,.29.08A.58.58,0,0,1,6.13,177.81Z" transform="translate(0 0)" style="fill: #fff"/>
  </g>
  <g id="_11" data-name="11">
    <path d="M3.15,218.75H2v-5.1H1v-1.13H3.15Z" transform="translate(0 0)" style="fill: #fff"/>
    <path d="M6.31,218.75H5.17v-5.1h-1v-1.13H6.31Z" transform="translate(0 0)" style="fill: #fff"/>
  </g>
  <g id="_13" data-name="13">
    <path d="M3.15,253.75H2v-5.1H1v-1.13H3.15Z" transform="translate(0 0)" style="fill: #fff"/>
    <path d="M9.63,252.16a1.53,1.53,0,0,1-.16.74,1.46,1.46,0,0,1-.91.76,1.61,1.61,0,0,1-.51.09H4.43v-1.13H8.05a.45.45,0,0,0,.34-.12.5.5,0,0,0,.11-.34v-1H4.43v-1.14H8.5v-.95a.4.4,0,0,0-.45-.46H4.43v-1.13H8.05a1.72,1.72,0,0,1,.52.07,1.5,1.5,0,0,1,.4.2,1.42,1.42,0,0,1,.31.29,1.38,1.38,0,0,1,.2.33,1.65,1.65,0,0,1,.11.36,1.35,1.35,0,0,1,0,.33Z" transform="translate(0 0)" style="fill: #fff"/>
  </g>
  <g id="_17" data-name="17">
    <path d="M3.15,288.75H2v-5.1H1v-1.13H3.15Z" transform="translate(0 0)" style="fill: #fff"/>
    <path d="M9.27,282.81a.55.55,0,0,1,.07.28.59.59,0,0,1-.07.29l-3.13,5.37H4.83l3-5.1H4.13v-1.13H8.78a.57.57,0,0,1,.28.08A.53.53,0,0,1,9.27,282.81Z" transform="translate(0 0)" style="fill: #fff"/>
  </g>
  <g id="_19" data-name="19">
    <path d="M3.15,322.2H2v-5.09H1V316H3.15Z" transform="translate(0 0)" style="fill: #fff"/>
    <path d="M4.21,318.07v-.51a2.11,2.11,0,0,1,0-.33,1.5,1.5,0,0,1,.11-.36,1.73,1.73,0,0,1,.21-.34,1.35,1.35,0,0,1,.3-.28,1.56,1.56,0,0,1,.41-.2A1.64,1.64,0,0,1,5.8,316h2a2.42,2.42,0,0,1,.45,0,2.6,2.6,0,0,1,.47.16,2.07,2.07,0,0,1,.45.27,1.78,1.78,0,0,1,.37.4,1.75,1.75,0,0,1,.26.53,2.13,2.13,0,0,1,.1.69v2a2.09,2.09,0,0,1-.1.69,1.93,1.93,0,0,1-.26.54,2,2,0,0,1-.37.39,2.07,2.07,0,0,1-.45.27,2,2,0,0,1-.47.15,1.82,1.82,0,0,1-.45.05H5v-1.13H7.83a1.41,1.41,0,0,0,.39-.08,1.08,1.08,0,0,0,.31-.19.81.81,0,0,0,.19-.29,1,1,0,0,0,.07-.4v-.45h-3a1.37,1.37,0,0,1-.34,0,1.27,1.27,0,0,1-.36-.12,1.94,1.94,0,0,1-.33-.2,1.38,1.38,0,0,1-.29-.3,1.72,1.72,0,0,1-.19-.41A1.67,1.67,0,0,1,4.21,318.07Zm4.58,0a1,1,0,0,0-.07-.4.9.9,0,0,0-.51-.5,1.12,1.12,0,0,0-.38-.06h-2a.42.42,0,0,0-.33.13.41.41,0,0,0-.13.32v.51a.45.45,0,0,0,.12.34.51.51,0,0,0,.35.11h3Z" transform="translate(0 0)" style="fill: #fff"/>
  </g>
</svg>
